<svg version="1.1" xmlns="http://www.w3.org/2000/svg" xmlns:xlink="http://www.w3.org/1999/xlink" x="0px" y="0px" style="enable-background:new 0 0 1920 1080;" xml:space="preserve" viewBox="465 86 297.92 238.05"><style type="text/css">	.st0{display:none;}	.st1{display:inline;}	.st2{display:inline;fill:#FFFFFF;}</style><g id="Home" class="st0">	<path class="st1" d="M318,174.26V298.6c0,11.82-9.58,21.4-21.4,21.4h-35.89c-11.82,0-21.4-9.58-21.4-21.4v-51.15   c0-11.82-9.58-21.4-21.4-21.4h-16.62c-11.82,0-21.4,9.58-21.4,21.4v51.15c0,11.82-9.58,21.4-21.4,21.4h-39.1   c-11.82,0-21.4-9.58-21.4-21.4V174.26c0-7.4,3.83-14.28,10.12-18.18l88.6-54.97c6.91-4.29,15.65-4.29,22.56,0l88.6,54.97   C314.17,159.98,318,166.86,318,174.26z"></path></g><g id="Pegasus">	<path d="M465,86c16.76,33.53,94.76,76.5,145,80c43,3,69-19,83,6s-12,80,1,114s84,28,66,24s-26-13-34-33c-8.18-20.45-12-85-17-116   s-14.25-37.82-35.09-45.31C647,106,582.65,142.24,552,131C522,120,465,86,465,86z"></path>	<path d="M678,189c0,0-7,58-27,68s-91.23-19.22-130.62-56.61C481,163,475,138,475,138s78.25,64.35,121,69C642,212,664,200,678,189z"></path>	<path d="M678,260.45c0,0-4,22.55-3,33.55s24,19,24,19s-26,18-64,8s-87-46-87-46s55.96,18.47,80.98,17.24   C654,291,678,260.45,678,260.45z"></path></g><g id="Zeus" class="st0">	<path class="st1" d="M991.74,54.16L905.87,182.6c-3.64,5.45,0.11,12.78,6.66,13.02l95.4,3.44c6.45,0.23,10.22,7.37,6.78,12.83   c-22,34.84-83.35,131.77-86.04,133.11"></path></g><g id="Moodle" class="st0">	<path class="st1" d="M1338.36,204.93c0,0,1.6-24.03,23.39-24.03s22.11,24.03,22.11,24.03V319h45.5V204.93   c0,0-1.28-66.01-67.94-66.01c-20.91,0-35.44,11.11-45.55,19.33c-9.72-8.22-23.63-19.33-43.52-19.33c-70.18,0-70.5,66.01-70.5,66.01   V319h45.5V204.93c0,0-0.32-25.31,23.39-25.31c23.07,0,22.11,25.31,22.11,25.31V319h45.5V204.93"></path>	<path class="st1" d="M1205.64,106.89l-61.14,61.56l47.65,3.47c16.8-33.63,42.38-50.1,78.09-46.83L1283.25,80L1205.64,106.89z"></path>	<circle class="st2" cx="1205.38" cy="107.19" r="8.65"></circle>	<polygon class="st1" points="1144.5,168.45 1144.5,238.89 1150.59,211.33  "></polygon></g></svg>